<svg id="Capa_1" data-name="Capa 1" xmlns="http://www.w3.org/2000/svg" viewBox="0 0 512 512">
  <defs>
    <style>
      .cls-1 {
        fill: #fff;
      }

      .cls-2 {
        fill: #e74400;
      }
    </style>
  </defs>
  <circle class="cls-1" cx="288" cy="128" r="32" transform="translate(59.53 345.09) rotate(-67.5)"/>
  <path class="cls-1" d="M314.2,189.64c-6-8.55-18.83-13.17-26.2-13.64-12.3-.78-35.95,4.33-48.65,8.06C212.75,191.89,192,212.27,192,240h50.31L193.92,373.06a32,32,0,0,0,3.88,29.3c6,8.55,15.8,14.5,26.2,13.64,12.29-1,36.49-6.08,48.65-8.11h0A56.63,56.63,0,0,0,320,352H269.69l48.39-133.06A32,32,0,0,0,314.2,189.64Z"/>
  <path class="cls-2" d="M256,0C114.84,0,0,114.84,0,256S114.84,512,256,512,512,397.16,512,256,397.16,0,256,0ZM197.8,402.36a32,32,0,0,1-3.88-29.3L242.31,240H192c0-27.73,20.75-48.11,47.35-55.94,12.7-3.73,36.35-8.84,48.65-8.06,7.37.47,20.22,5.09,26.2,13.64a32,32,0,0,1,3.88,29.3L269.69,352H320a56.63,56.63,0,0,1-47.33,55.89h0c-12.16,2-36.36,7.09-48.65,8.11C213.6,416.86,203.78,410.91,197.8,402.36ZM288,160a32,32,0,1,1,32-32A32,32,0,0,1,288,160Z"/>
</svg>
